<svg width="584" height="290" viewBox="0 0 584 290" fill="none" xmlns="http://www.w3.org/2000/svg">
<g clip-path="url(#clip0_21_429)">
<path d="M128.3 14.7L113.6 0H0V222.6C0 243.2 13.3 256.5 33.9 256.5H95.8L128.3 289L160.8 256.5H222.7C243.3 256.5 256.6 243.2 256.6 222.6V0H143L128.3 14.7ZM47.8 76.3H47.7C39.2 76.3 32.2 69.4 32.1 60.9V26.1H32.2C40.8 26.1 47.8 33.1 47.8 41.7V76.3ZM72.1 107.9H72C63.4 107.9 56.4 100.9 56.4 92.3V22.9H56.5C65.1 22.9 72.1 29.9 72.1 38.5V107.9ZM95.4 61C95.3 69.5 88.4 76.3 79.8 76.3H79.7V41.7C79.7 33.1 86.7 26.1 95.3 26.1H95.4V61ZM130.8 67.9H188.7V125.8H130.8V67.9ZM161.9 62.9H154.4L188.6 28.7V36.2L161.9 62.9ZM188.6 41.9V49.4L175.2 62.9H167.7L188.6 41.9ZM148.6 62.9H141.1L188.6 15.4V22.9L148.6 62.9ZM162 188.7H154.5L188.7 154.5V162L162 188.7ZM188.7 167.7V175.3L175.3 188.7H167.8L188.7 167.7ZM148.7 188.7H141.2L188.7 141.2V148.7L148.7 188.7ZM135.4 188.7H130.8V185.5L185.5 130.8H188.7V135.4L135.4 188.7ZM158.7 130.8H166.5L130.8 166.5V158.7L158.7 130.8ZM130.8 152.9V144.8L144.9 130.7H152.9L130.8 152.9ZM172.2 130.8H179.7L130.7 179.8V172.3L172.2 130.8ZM139.1 130.8L130.8 139.1V130.8H139.1ZM188.7 251.6H158.7L130.8 279.5V193.7H188.7V251.6ZM181 188.7L188.7 181V188.7H181ZM229.4 251L251 229.4C248.9 241.1 241.1 248.9 229.4 251ZM251.6 222.6C251.6 222.7 251.6 222.9 251.6 223L223.1 251.5H215.6L251.7 215.4L251.6 222.6ZM251.6 209.8L209.8 251.6H202.3L251.7 202.2V209.8H251.6ZM251.6 125.8H243.9L251.6 118.1V125.8ZM251.6 112.3L238.2 125.7H230.7L251.7 104.7L251.6 112.3ZM251.6 99.1L224.9 125.8H217.4L251.6 91.6V99.1ZM251.6 85.8L211.6 125.8H204L251.5 78.3V85.8H251.6ZM193.7 5H251.6V62.9H193.7V5ZM193.7 67.9H202L193.7 76.2V67.9ZM193.7 81.9L207.8 67.8H215.9L193.7 90V81.9ZM193.7 95.7L221.6 67.8H229.4L193.7 103.5V95.7ZM193.7 109.3L235.1 67.9H242.6L193.6 116.9L193.7 109.3ZM193.7 122.6L248.4 67.9H251.6V72.5L198.3 125.8H193.7V122.6ZM193.7 130.8H251.6V188.7H193.7V130.8ZM193.7 193.7H200.2L193.7 200.2V193.7ZM193.7 205.9L205.9 193.7H214L193.7 214V205.9ZM193.7 219.7L219.8 193.7H227.6L193.7 227.6V219.7ZM193.7 233.3L233.3 193.7H240.8L193.6 240.9L193.7 233.3ZM193.7 246.5L246.6 193.6H251.6V196.4L196.5 251.5H193.7V246.5ZM181 62.9L188.7 55.2V62.9H181ZM188.7 5V9.6L135.4 62.9H130.8V59.7L185.5 5H188.7ZM179.8 5L130.8 54V46.5L172.2 5H179.8ZM166.5 5L130.8 40.7V32.9L158.7 5H166.5ZM152.9 5L130.8 27.1V19.3L145 5H152.9Z" fill="white"/>
<path d="M286.2 2.7998H291.6L297.7 12.5998L303.8 2.7998H309.3V25.8998H304.2V10.7998L297.7 20.6998H297.6L291.1 10.8998V25.8998H286.2V2.7998Z" fill="white"/>
<path d="M314.1 14.2999C314.1 7.6999 319.3 2.3999 326.4 2.3999C333.5 2.3999 338.6 7.6999 338.6 14.2999C338.6 20.8999 333.4 26.1999 326.3 26.1999C319.2 26.2999 314.1 20.9999 314.1 14.2999ZM333.4 14.2999C333.4 10.2999 330.5 6.9999 326.4 6.9999C322.3 6.9999 319.5 10.1999 319.5 14.2999C319.5 18.2999 322.4 21.5999 326.5 21.5999C330.5 21.5999 333.4 18.3999 333.4 14.2999Z" fill="white"/>
<path d="M341.8 22.5L344.8 18.9C346.9 20.6 349.1 21.7 351.7 21.7C353.8 21.7 355 20.9 355 19.5C355 18.2 354.2 17.6 350.3 16.6C345.6 15.4 342.6 14.1 342.6 9.5C342.6 5.3 346 2.5 350.7 2.5C354.1 2.5 356.9 3.6 359.3 5.4L356.7 9.2C354.7 7.8 352.6 6.9 350.7 6.9C348.8 6.9 347.7 7.8 347.7 9C347.7 10.5 348.7 11 352.7 12C357.4 13.2 360 14.9 360 19C360 23.6 356.5 26.2 351.5 26.2C348.1 26.2 344.5 25 341.8 22.5Z" fill="white"/>
<path d="M363.8 14.2999C363.8 7.6999 368.7 2.3999 375.8 2.3999C380.2 2.3999 382.6 3.9999 384.7 6.1999L381.7 9.6999C379.9 8.0999 378.4 7.0999 375.8 7.0999C371.9 7.0999 369.1 10.2999 369.1 14.3999C369.1 18.3999 371.8 21.6999 375.8 21.6999C378.4 21.6999 380.1 20.5999 381.9 18.9999L385.1 22.4999C382.7 24.9999 380.1 26.3999 375.6 26.3999C368.8 26.2999 363.8 20.9999 363.8 14.2999Z" fill="white"/>
<path d="M387.8 14.2999C387.8 7.6999 393 2.3999 400.1 2.3999C407.2 2.3999 412.3 7.6999 412.3 14.2999C412.3 20.8999 407.1 26.1999 400 26.1999C392.9 26.2999 387.8 20.9999 387.8 14.2999ZM407.1 14.2999C407.1 10.2999 404.2 6.9999 400.1 6.9999C396 6.9999 393.2 10.1999 393.2 14.2999C393.2 18.2999 396.1 21.5999 400.2 21.5999C404.2 21.5999 407.1 18.3999 407.1 14.2999Z" fill="white"/>
<path d="M414.1 2.79971H419.6L424.3 18.3997L429.5 2.69971H433.9L439.1 18.3997L443.9 2.79971H449.2L441.3 26.0997H436.9L431.6 10.8997L426.4 26.0997H422L414.1 2.79971Z" fill="white"/>
<path d="M461.9 22.5L464.9 18.9C467 20.6 469.2 21.7 471.8 21.7C473.9 21.7 475.1 20.9 475.1 19.5C475.1 18.2 474.3 17.6 470.4 16.6C465.7 15.4 462.7 14.1 462.7 9.5C462.7 5.3 466.1 2.5 470.8 2.5C474.2 2.5 477 3.6 479.4 5.4L476.8 9.2C474.8 7.8 472.7 6.9 470.8 6.9C468.9 6.9 467.8 7.8 467.8 9C467.8 10.5 468.8 11 472.8 12C477.5 13.2 480.1 14.9 480.1 19C480.1 23.6 476.6 26.2 471.6 26.2C468.2 26.2 464.7 25 461.9 22.5Z" fill="white"/>
<path d="M489.8 7.4998H482.8V2.7998H501.9V7.4998H494.9V25.8998H489.8V7.4998Z" fill="white"/>
<path d="M511.1 2.6001H515.8L525.7 25.9001H520.4L518.3 20.7001H508.5L506.4 25.9001H501.2L511.1 2.6001ZM516.5 16.2001L513.4 8.7001L510.3 16.2001H516.5Z" fill="white"/>
<path d="M532 7.4998H525V2.7998H544.1V7.4998H537.1V25.8998H532V7.4998Z" fill="white"/>
<path d="M548.3 2.7998H565.8V7.2998H553.4V11.9998H564.3V16.4998H553.4V21.3998H565.9V25.8998H548.3V2.7998Z" fill="white"/>
<path d="M285.8 55.5999V42.3999H290.9V55.4999C290.9 59.2999 292.8 61.1999 295.9 61.1999C299 61.1999 300.9 59.2999 300.9 55.6999V42.3999H306V55.3999C306 62.3999 302.1 65.7999 295.9 65.7999C289.6 65.8999 285.8 62.3999 285.8 55.5999Z" fill="white"/>
<path d="M311.4 42.3999H316.1L327 56.5999V42.3999H332V65.4999H327.6L316.5 50.7999V65.4999H311.4V42.3999Z" fill="white"/>
<path d="M343.2 42.3999H338.1V65.4999H343.2V42.3999Z" fill="white"/>
<path d="M347.3 42.3999H352.9L358.9 58.6999L365 42.3999H370.5L361.1 65.6999H356.6L347.3 42.3999Z" fill="white"/>
<path d="M374.3 42.3999H391.8V46.8999H379.4V51.5999H390.3V56.0999H379.4V60.9999H391.9V65.4999H374.3V42.3999Z" fill="white"/>
<path d="M396.8 42.3999H407.4C410.3 42.3999 412.6 43.1999 414.1 44.6999C415.4 45.9999 416.1 47.7999 416.1 49.9999C416.1 53.6999 414.1 56.0999 411.1 57.1999L416.7 65.3999H410.8L405.8 57.9999H401.9V65.3999H396.8V42.3999ZM407 53.5999C409.5 53.5999 410.9 52.2999 410.9 50.2999C410.9 48.0999 409.4 46.9999 406.9 46.9999H401.9V53.5999H407Z" fill="white"/>
<path d="M419.4 62.1001L422.4 58.5001C424.5 60.2001 426.7 61.3001 429.3 61.3001C431.4 61.3001 432.6 60.5001 432.6 59.1001C432.6 57.8001 431.8 57.2001 427.9 56.2001C423.2 55.0001 420.2 53.7001 420.2 49.1001C420.2 44.9001 423.6 42.1001 428.3 42.1001C431.7 42.1001 434.5 43.2001 436.9 45.0001L434.3 48.8001C432.3 47.4001 430.2 46.5001 428.3 46.5001C426.4 46.5001 425.3 47.4001 425.3 48.6001C425.3 50.1001 426.3 50.6001 430.3 51.6001C435 52.8001 437.6 54.5001 437.6 58.6001C437.6 63.2001 434.1 65.8001 429.1 65.8001C425.7 65.8001 422.2 64.6001 419.4 62.1001Z" fill="white"/>
<path d="M447.8 42.3999H442.7V65.4999H447.8V42.3999Z" fill="white"/>
<path d="M459.2 47.0999H452.2V42.3999H471.3V47.0999H464.3V65.4999H459.2V47.0999Z" fill="white"/>
<path d="M482.1 56.3999L473.2 42.3999H479.1L484.6 51.6999L490.3 42.3999H496L487.1 56.2999V65.4999H482.1V56.3999Z" fill="white"/>
<path d="M285.1 93.5001C285.1 86.9001 290.3 81.6001 297.4 81.6001C304.5 81.6001 309.6 86.9001 309.6 93.5001C309.6 100.1 304.4 105.4 297.3 105.4C290.3 105.5 285.1 100.2 285.1 93.5001ZM304.4 93.5001C304.4 89.5001 301.5 86.2001 297.4 86.2001C293.3 86.2001 290.5 89.4001 290.5 93.5001C290.5 97.5001 293.4 100.8 297.5 100.8C301.5 100.8 304.4 97.6001 304.4 93.5001Z" fill="white"/>
<path d="M314.5 82H332.1V86.6H319.6V91.5H330.7V96.2H319.6V105.1H314.5V82Z" fill="white"/>
<path d="M346.8 82H356.2C361.7 82 365 85.3 365 90.1C365 95.4 360.8 98.2 355.7 98.2H351.8V105.1H346.7V82H346.8ZM355.9 93.6C358.4 93.6 359.9 92.1 359.9 90C359.9 87.7 358.3 86.5 355.8 86.5H351.9V93.6H355.9Z" fill="white"/>
<path d="M367.5 101.7L370.5 98.0997C372.6 99.7997 374.8 100.9 377.4 100.9C379.5 100.9 380.7 100.1 380.7 98.6997C380.7 97.3997 379.9 96.7997 376 95.7997C371.3 94.5997 368.3 93.2997 368.3 88.6997C368.3 84.4997 371.7 81.6997 376.4 81.6997C379.8 81.6997 382.6 82.7997 385 84.5997L382.4 88.3997C380.4 86.9997 378.3 86.0997 376.4 86.0997C374.5 86.0997 373.4 86.9997 373.4 88.1997C373.4 89.6997 374.4 90.1997 378.4 91.1997C383.1 92.3997 385.7 94.0997 385.7 98.1997C385.7 102.8 382.2 105.4 377.2 105.4C373.9 105.4 370.3 104.2 367.5 101.7Z" fill="white"/>
<path d="M396.1 96L387.2 82H393.2L398.7 91.3L404.3 82H410.1L401.2 95.9V105.1H396.1V96Z" fill="white"/>
<path d="M410.5 93.5001C410.5 86.9001 415.4 81.6001 422.5 81.6001C426.9 81.6001 429.3 83.2001 431.4 85.4001L428.4 88.9001C426.6 87.3001 425.1 86.3001 422.5 86.3001C418.6 86.3001 415.8 89.5001 415.8 93.6001C415.8 97.6001 418.5 100.9 422.5 100.9C425.1 100.9 426.8 99.8001 428.6 98.2001L431.8 101.7C429.4 104.2 426.8 105.6 422.3 105.6C415.6 105.5 410.5 100.2 410.5 93.5001Z" fill="white"/>
<path d="M436.3 82H441.3V91.1H450.7V82H455.8V105.1H450.7V95.8H441.3V105.1H436.3V82Z" fill="white"/>
<path d="M460.6 93.5001C460.6 86.9001 465.8 81.6001 472.9 81.6001C480 81.6001 485.1 86.9001 485.1 93.5001C485.1 100.1 479.9 105.4 472.8 105.4C465.8 105.5 460.6 100.2 460.6 93.5001ZM479.9 93.5001C479.9 89.5001 477 86.2001 472.9 86.2001C468.8 86.2001 466 89.4001 466 93.5001C466 97.5001 468.9 100.8 473 100.8C477 100.8 479.9 97.6001 479.9 93.5001Z" fill="white"/>
<path d="M490.1 82H495.1V100.5H506.7V105.1H490.1V82Z" fill="white"/>
<path d="M508.5 93.5001C508.5 86.9001 513.7 81.6001 520.8 81.6001C527.9 81.6001 533 86.9001 533 93.5001C533 100.1 527.8 105.4 520.7 105.4C513.6 105.5 508.5 100.2 508.5 93.5001ZM527.7 93.5001C527.7 89.5001 524.8 86.2001 520.7 86.2001C516.6 86.2001 513.8 89.4001 513.8 93.5001C513.8 97.5001 516.7 100.8 520.8 100.8C524.9 100.8 527.7 97.6001 527.7 93.5001Z" fill="white"/>
<path d="M536.8 93.5001C536.8 86.9001 541.9 81.6001 548.9 81.6001C553.1 81.6001 555.6 82.7001 558 84.8001L554.8 88.7001C553 87.2001 551.4 86.4001 548.8 86.4001C545.1 86.4001 542.2 89.7001 542.2 93.7001C542.2 97.9001 545.1 101 549.2 101C551 101 552.7 100.5 554 99.6001V96.3001H548.9V91.9001H558.9V101.9C556.5 103.9 553.3 105.6 549 105.6C541.8 105.5 536.8 100.4 536.8 93.5001Z" fill="white"/>
<path d="M569.6 96L560.7 82H566.6L572.2 91.3L577.8 82H583.5L574.7 95.9V105.1H569.6V96Z" fill="white"/>
<path d="M299 142.5C297.1 144.1 294.9 145.1 292.2 145.1C287.8 145.1 284.4 142.5 284.4 138.4C284.4 135.5 286 133.4 288.9 132.1C287.8 130.5 287.3 129.1 287.3 127.4C287.3 124.2 289.8 121.3 294.3 121.3C298.2 121.3 300.8 123.9 300.8 127.2C300.8 130.3 298.8 132.1 295.9 133.2L299 136.3C299.8 135.1 300.5 133.8 301.2 132.3L304.9 134.3C304 135.9 303 137.6 301.9 139.2L305.3 142.6L301.6 145.2L299 142.5ZM296.2 139.6L291.8 135.1C290.3 135.9 289.7 137 289.7 138.2C289.7 139.8 291.1 140.9 292.9 140.9C294 140.9 295.1 140.4 296.2 139.6ZM296.5 127.3C296.5 126 295.6 125.2 294.3 125.2C292.9 125.2 292.1 126.2 292.1 127.6C292.1 128.6 292.5 129.4 293.5 130.5C295.4 129.7 296.5 128.8 296.5 127.3Z" fill="white"/>
<path d="M319.7 121.6H337.1V126.1H324.7V130.8H335.6V135.3H324.7V140.2H337.3V144.7H319.7V121.6Z" fill="white"/>
<path d="M342.1 121.6H351.1C358.4 121.6 363.4 126.6 363.4 133.2C363.4 139.7 358.4 144.8 351.1 144.8H342.1V121.6ZM351.1 140.1C355.3 140.1 358.1 137.3 358.1 133.1C358.1 129 355.3 126.1 351.1 126.1H347.2V140H351.1V140.1Z" fill="white"/>
<path d="M367.9 134.8V121.6H373V134.7C373 138.5 374.9 140.4 378 140.4C381.1 140.4 383 138.5 383 134.9V121.7H388.1V134.7C388.1 141.7 384.2 145.1 378 145.1C371.7 145.1 367.9 141.6 367.9 134.8Z" fill="white"/>
<path d="M392.5 133.1C392.5 126.5 397.4 121.2 404.5 121.2C408.9 121.2 411.3 122.8 413.4 125L410.4 128.5C408.6 126.9 407.1 125.9 404.5 125.9C400.6 125.9 397.8 129.1 397.8 133.2C397.8 137.2 400.5 140.5 404.5 140.5C407.1 140.5 408.8 139.4 410.6 137.8L413.8 141.3C411.4 143.8 408.8 145.2 404.3 145.2C397.6 145.1 392.5 139.8 392.5 133.1Z" fill="white"/>
<path d="M426.2 121.4H430.9L440.8 144.7H435.5L433.4 139.5H423.6L421.5 144.7H416.3L426.2 121.4ZM431.5 135L428.4 127.5L425.3 135H431.5Z" fill="white"/>
<path d="M447.1 126.3H440V121.6H459.2V126.3H452.1V144.7H447.1V126.3Z" fill="white"/>
<path d="M468.7 121.6H463.6V144.7H468.7V121.6Z" fill="white"/>
<path d="M473.8 133.1C473.8 126.5 479 121.2 486.1 121.2C493.2 121.2 498.3 126.5 498.3 133.1C498.3 139.7 493.1 145 486 145C478.9 145.1 473.8 139.8 473.8 133.1ZM493 133.1C493 129.1 490.1 125.8 486 125.8C481.9 125.8 479.1 129 479.1 133.1C479.1 137.1 482 140.4 486.1 140.4C490.2 140.4 493 137.2 493 133.1Z" fill="white"/>
<path d="M503.2 121.6H507.9L518.7 135.8V121.6H523.7V144.7H519.4L508.2 130V144.7H503.2V121.6Z" fill="white"/>
</g>
<defs>
<clipPath id="clip0_21_429">
<rect width="583.5" height="289.1" fill="white"/>
</clipPath>
</defs>
</svg>
