<?xml version="1.0" encoding="utf-8"?>
<!-- Generator: Adobe Illustrator 27.4.0, SVG Export Plug-In . SVG Version: 6.00 Build 0)  -->
<svg version="1.1" id="Layer_2" xmlns="http://www.w3.org/2000/svg" xmlns:xlink="http://www.w3.org/1999/xlink" x="0px" y="0px"
	 viewBox="0 0 583.5 289.1" style="enable-background:new 0 0 583.5 289.1;" xml:space="preserve">
<style type="text/css">
	.st0{fill:#1D1D1B;}
</style>
<g>
	<path class="st0" d="M128.3,14.7L113.6,0H0v222.6c0,20.6,13.3,33.9,33.9,33.9h61.9l32.5,32.5l32.5-32.5h61.9
		c20.6,0,33.9-13.3,33.9-33.9V0H143L128.3,14.7z M47.8,76.3h-0.1c-8.5,0-15.5-6.9-15.6-15.4l0,0V26.1h0.1c8.6,0,15.6,7,15.6,15.6
		L47.8,76.3z M72.1,107.9H72c-8.6,0-15.6-7-15.6-15.6l0,0V22.9h0.1c8.6,0,15.6,7,15.6,15.6c0,0,0,0,0,0V107.9z M95.4,61L95.4,61
		c-0.1,8.5-7,15.3-15.6,15.3h-0.1V41.7c0-8.6,7-15.6,15.6-15.6h0.1V61z M130.8,67.9h57.9v57.9h-57.9V67.9z M161.9,62.9h-7.5
		l34.2-34.2v7.5L161.9,62.9z M188.6,41.9v7.5l-13.4,13.5h-7.5L188.6,41.9z M148.6,62.9h-7.5l47.5-47.5v7.5L148.6,62.9z M162,188.7
		h-7.5l34.2-34.2v7.5L162,188.7z M188.7,167.7v7.6l-13.4,13.4h-7.5L188.7,167.7z M148.7,188.7h-7.5l47.5-47.5v7.5L148.7,188.7z
		 M135.4,188.7h-4.6v-3.2l54.7-54.7h3.2v4.6L135.4,188.7z M158.7,130.8h7.8l-35.7,35.7v-7.8L158.7,130.8z M130.8,152.9v-8.1
		l14.1-14.1h8L130.8,152.9z M172.2,130.8h7.5l-49,49v-7.5L172.2,130.8z M139.1,130.8l-8.3,8.3v-8.3H139.1z M188.7,251.6h-30
		l-27.9,27.9v-85.8h57.9V251.6z M181,188.7l7.7-7.7v7.7H181z M229.4,251l21.6-21.6C248.9,241.1,241.1,248.9,229.4,251z M251.6,222.6
		c0,0.1,0,0.3,0,0.4l-28.5,28.5h-7.5l36.1-36.1L251.6,222.6z M251.6,209.8l-41.8,41.8h-7.5l49.4-49.4V209.8z M251.6,125.8h-7.7
		l7.7-7.7V125.8z M251.6,112.3l-13.4,13.4h-7.5l21-21L251.6,112.3z M251.6,99.1l-26.7,26.7h-7.5l34.2-34.2L251.6,99.1z M251.6,85.8
		l-40,40H204l47.5-47.5V85.8z M193.7,5h57.9v57.9h-57.9L193.7,5z M193.7,67.9h8.3l-8.3,8.3V67.9z M193.7,81.9l14.1-14.1h8.1
		L193.7,90L193.7,81.9z M193.7,95.7l27.9-27.9h7.8l-35.7,35.7L193.7,95.7z M193.7,109.3l41.4-41.4h7.5l-49,49L193.7,109.3z
		 M193.7,122.6l54.7-54.7h3.2v4.6l-53.3,53.3h-4.6L193.7,122.6z M193.7,130.8h57.9v57.9h-57.9L193.7,130.8z M193.7,193.7h6.5
		l-6.5,6.5V193.7z M193.7,205.9l12.2-12.2h8.1L193.7,214V205.9z M193.7,219.7l26.1-26h7.8l-33.9,33.9L193.7,219.7z M193.7,233.3
		l39.6-39.6h7.5l-47.2,47.2L193.7,233.3z M193.7,246.5l52.9-52.9h5v2.8l-55.1,55.1h-2.8L193.7,246.5z M181,62.9l7.7-7.7v7.7H181z
		 M188.7,5v4.6l-53.3,53.3h-4.6v-3.2L185.5,5L188.7,5z M179.8,5l-49,49v-7.5L172.2,5L179.8,5z M166.5,5l-35.7,35.7v-7.8L158.7,5
		H166.5z M152.9,5l-22.1,22.1v-7.8L145,5L152.9,5z"/>
	<g>
		<polygon class="st0" points="286.2,2.8 291.6,2.8 297.7,12.6 303.8,2.8 309.3,2.8 309.3,25.9 304.2,25.9 304.2,10.8 297.7,20.7 
			297.6,20.7 291.1,10.9 291.1,25.9 286.2,25.9 		"/>
		<path class="st0" d="M314.1,14.3c0-6.6,5.2-11.9,12.3-11.9c7.1,0,12.2,5.3,12.2,11.9c0,6.6-5.2,11.9-12.3,11.9
			C319.2,26.3,314.1,21,314.1,14.3 M333.4,14.3c0-4-2.9-7.3-7-7.3c-4.1,0-6.9,3.2-6.9,7.3c0,4,2.9,7.3,7,7.3
			C330.5,21.6,333.4,18.4,333.4,14.3"/>
		<path class="st0" d="M341.8,22.5l3-3.6c2.1,1.7,4.3,2.8,6.9,2.8c2.1,0,3.3-0.8,3.3-2.2c0-1.3-0.8-1.9-4.7-2.9
			c-4.7-1.2-7.7-2.5-7.7-7.1c0-4.2,3.4-7,8.1-7c3.4,0,6.2,1.1,8.6,2.9l-2.6,3.8c-2-1.4-4.1-2.3-6-2.3c-1.9,0-3,0.9-3,2.1
			c0,1.5,1,2,5,3c4.7,1.2,7.3,2.9,7.3,7c0,4.6-3.5,7.2-8.5,7.2C348.1,26.2,344.5,25,341.8,22.5"/>
		<path class="st0" d="M363.8,14.3c0-6.6,4.9-11.9,12-11.9c4.4,0,6.8,1.6,8.9,3.8l-3,3.5c-1.8-1.6-3.3-2.6-5.9-2.6
			c-3.9,0-6.7,3.2-6.7,7.3c0,4,2.7,7.3,6.7,7.3c2.6,0,4.3-1.1,6.1-2.7l3.2,3.5c-2.4,2.5-5,3.9-9.5,3.9
			C368.8,26.3,363.8,21,363.8,14.3"/>
		<path class="st0" d="M387.8,14.3c0-6.6,5.2-11.9,12.3-11.9c7.1,0,12.2,5.3,12.2,11.9c0,6.6-5.2,11.9-12.3,11.9
			C392.9,26.3,387.8,21,387.8,14.3 M407.1,14.3c0-4-2.9-7.3-7-7.3c-4.1,0-6.9,3.2-6.9,7.3c0,4,2.9,7.3,7,7.3
			C404.2,21.6,407.1,18.4,407.1,14.3"/>
		<polygon class="st0" points="414.1,2.8 419.6,2.8 424.3,18.4 429.5,2.7 433.9,2.7 439.1,18.4 443.9,2.8 449.2,2.8 441.3,26.1 
			436.9,26.1 431.6,10.9 426.4,26.1 422,26.1 		"/>
		<path class="st0" d="M461.9,22.5l3-3.6c2.1,1.7,4.3,2.8,6.9,2.8c2.1,0,3.3-0.8,3.3-2.2c0-1.3-0.8-1.9-4.7-2.9
			c-4.7-1.2-7.7-2.5-7.7-7.1c0-4.2,3.4-7,8.1-7c3.4,0,6.2,1.1,8.6,2.9l-2.6,3.8c-2-1.4-4.1-2.3-6-2.3c-1.9,0-3,0.9-3,2.1
			c0,1.5,1,2,5,3c4.7,1.2,7.3,2.9,7.3,7c0,4.6-3.5,7.2-8.5,7.2C468.2,26.2,464.7,25,461.9,22.5"/>
		<polygon class="st0" points="489.8,7.5 482.8,7.5 482.8,2.8 501.9,2.8 501.9,7.5 494.9,7.5 494.9,25.9 489.8,25.9 		"/>
		<path class="st0" d="M511.1,2.6h4.7l9.9,23.3h-5.3l-2.1-5.2h-9.8l-2.1,5.2h-5.2L511.1,2.6z M516.5,16.2l-3.1-7.5l-3.1,7.5H516.5z"
			/>
		<polygon class="st0" points="532,7.5 525,7.5 525,2.8 544.1,2.8 544.1,7.5 537.1,7.5 537.1,25.9 532,25.9 		"/>
		<polygon class="st0" points="548.3,2.8 565.8,2.8 565.8,7.3 553.4,7.3 553.4,12 564.3,12 564.3,16.5 553.4,16.5 553.4,21.4 
			565.9,21.4 565.9,25.9 548.3,25.9 		"/>
		<path class="st0" d="M285.8,55.6V42.4h5.1v13.1c0,3.8,1.9,5.7,5,5.7c3.1,0,5-1.9,5-5.5V42.4h5.1v13c0,7-3.9,10.4-10.1,10.4
			C289.6,65.9,285.8,62.4,285.8,55.6"/>
		<polygon class="st0" points="311.4,42.4 316.1,42.4 327,56.6 327,42.4 332,42.4 332,65.5 327.6,65.5 316.5,50.8 316.5,65.5 
			311.4,65.5 		"/>
		<rect x="338.1" y="42.4" class="st0" width="5.1" height="23.1"/>
		<polygon class="st0" points="347.3,42.4 352.9,42.4 358.9,58.7 365,42.4 370.5,42.4 361.1,65.7 356.6,65.7 		"/>
		<polygon class="st0" points="374.3,42.4 391.8,42.4 391.8,46.9 379.4,46.9 379.4,51.6 390.3,51.6 390.3,56.1 379.4,56.1 379.4,61 
			391.9,61 391.9,65.5 374.3,65.5 		"/>
		<path class="st0" d="M396.8,42.4h10.6c2.9,0,5.2,0.8,6.7,2.3c1.3,1.3,2,3.1,2,5.3c0,3.7-2,6.1-5,7.2l5.6,8.2h-5.9l-5-7.4h-3.9v7.4
			h-5.1V42.4z M407,53.6c2.5,0,3.9-1.3,3.9-3.3c0-2.2-1.5-3.3-4-3.3h-5v6.6H407z"/>
		<path class="st0" d="M419.4,62.1l3-3.6c2.1,1.7,4.3,2.8,6.9,2.8c2.1,0,3.3-0.8,3.3-2.2c0-1.3-0.8-1.9-4.7-2.9
			c-4.7-1.2-7.7-2.5-7.7-7.1c0-4.2,3.4-7,8.1-7c3.4,0,6.2,1.1,8.6,2.9l-2.6,3.8c-2-1.4-4.1-2.3-6-2.3c-1.9,0-3,0.9-3,2.1
			c0,1.5,1,2,5,3c4.7,1.2,7.3,2.9,7.3,7c0,4.6-3.5,7.2-8.5,7.2C425.7,65.8,422.2,64.6,419.4,62.1"/>
		<rect x="442.7" y="42.4" class="st0" width="5.1" height="23.1"/>
		<polygon class="st0" points="459.2,47.1 452.2,47.1 452.2,42.4 471.3,42.4 471.3,47.1 464.3,47.1 464.3,65.5 459.2,65.5 		"/>
		<polygon class="st0" points="482.1,56.4 473.2,42.4 479.1,42.4 484.6,51.7 490.3,42.4 496,42.4 487.1,56.3 487.1,65.5 482.1,65.5 
					"/>
		<path class="st0" d="M285.1,93.5c0-6.6,5.2-11.9,12.3-11.9c7.1,0,12.2,5.3,12.2,11.9c0,6.6-5.2,11.9-12.3,11.9
			C290.3,105.5,285.1,100.2,285.1,93.5 M304.4,93.5c0-4-2.9-7.3-7-7.3c-4.1,0-6.9,3.2-6.9,7.3c0,4,2.9,7.3,7,7.3
			C301.5,100.8,304.4,97.6,304.4,93.5"/>
		<polygon class="st0" points="314.5,82 332.1,82 332.1,86.6 319.6,86.6 319.6,91.5 330.7,91.5 330.7,96.2 319.6,96.2 319.6,105.1 
			314.5,105.1 		"/>
		<path class="st0" d="M346.8,82h9.4c5.5,0,8.8,3.3,8.8,8.1c0,5.3-4.2,8.1-9.3,8.1h-3.9v6.9h-5.1V82z M355.9,93.6c2.5,0,4-1.5,4-3.6
			c0-2.3-1.6-3.5-4.1-3.5h-3.9v7.1H355.9z"/>
		<path class="st0" d="M367.5,101.7l3-3.6c2.1,1.7,4.3,2.8,6.9,2.8c2.1,0,3.3-0.8,3.3-2.2c0-1.3-0.8-1.9-4.7-2.9
			c-4.7-1.2-7.7-2.5-7.7-7.1c0-4.2,3.4-7,8.1-7c3.4,0,6.2,1.1,8.6,2.9l-2.6,3.8c-2-1.4-4.1-2.3-6-2.3c-1.9,0-3,0.9-3,2.1
			c0,1.5,1,2,5,3c4.7,1.2,7.3,2.9,7.3,7c0,4.6-3.5,7.2-8.5,7.2C373.9,105.4,370.3,104.2,367.5,101.7"/>
		<polygon class="st0" points="396.1,96 387.2,82 393.2,82 398.7,91.3 404.3,82 410.1,82 401.2,95.9 401.2,105.1 396.1,105.1 		"/>
		<path class="st0" d="M410.5,93.5c0-6.6,4.9-11.9,12-11.9c4.4,0,6.8,1.6,8.9,3.8l-3,3.5c-1.8-1.6-3.3-2.6-5.9-2.6
			c-3.9,0-6.7,3.2-6.7,7.3c0,4,2.7,7.3,6.7,7.3c2.6,0,4.3-1.1,6.1-2.7l3.2,3.5c-2.4,2.5-5,3.9-9.5,3.9
			C415.6,105.5,410.5,100.2,410.5,93.5"/>
		<polygon class="st0" points="436.3,82 441.3,82 441.3,91.1 450.7,91.1 450.7,82 455.8,82 455.8,105.1 450.7,105.1 450.7,95.8 
			441.3,95.8 441.3,105.1 436.3,105.1 		"/>
		<path class="st0" d="M460.6,93.5c0-6.6,5.2-11.9,12.3-11.9c7.1,0,12.2,5.3,12.2,11.9c0,6.6-5.2,11.9-12.3,11.9
			C465.8,105.5,460.6,100.2,460.6,93.5 M479.9,93.5c0-4-2.9-7.3-7-7.3c-4.1,0-6.9,3.2-6.9,7.3c0,4,2.9,7.3,7,7.3
			C477,100.8,479.9,97.6,479.9,93.5"/>
		<polygon class="st0" points="490.1,82 495.1,82 495.1,100.5 506.7,100.5 506.7,105.1 490.1,105.1 		"/>
		<path class="st0" d="M508.5,93.5c0-6.6,5.2-11.9,12.3-11.9c7.1,0,12.2,5.3,12.2,11.9c0,6.6-5.2,11.9-12.3,11.9
			C513.6,105.5,508.5,100.2,508.5,93.5 M527.7,93.5c0-4-2.9-7.3-7-7.3c-4.1,0-6.9,3.2-6.9,7.3c0,4,2.9,7.3,7,7.3
			C524.9,100.8,527.7,97.6,527.7,93.5"/>
		<path class="st0" d="M536.8,93.5c0-6.6,5.1-11.9,12.1-11.9c4.2,0,6.7,1.1,9.1,3.2l-3.2,3.9c-1.8-1.5-3.4-2.3-6-2.3
			c-3.7,0-6.6,3.3-6.6,7.3c0,4.2,2.9,7.3,7,7.3c1.8,0,3.5-0.5,4.8-1.4v-3.3h-5.1v-4.4h10v10c-2.4,2-5.6,3.7-9.9,3.7
			C541.8,105.5,536.8,100.4,536.8,93.5"/>
		<polygon class="st0" points="569.6,96 560.7,82 566.6,82 572.2,91.3 577.8,82 583.5,82 574.7,95.9 574.7,105.1 569.6,105.1 		"/>
		<path class="st0" d="M299,142.5c-1.9,1.6-4.1,2.6-6.8,2.6c-4.4,0-7.8-2.6-7.8-6.7c0-2.9,1.6-5,4.5-6.3c-1.1-1.6-1.6-3-1.6-4.7
			c0-3.2,2.5-6.1,7-6.1c3.9,0,6.5,2.6,6.5,5.9c0,3.1-2,4.9-4.9,6l3.1,3.1c0.8-1.2,1.5-2.5,2.2-4l3.7,2c-0.9,1.6-1.9,3.3-3,4.9
			l3.4,3.4l-3.7,2.6L299,142.5z M296.2,139.6l-4.4-4.5c-1.5,0.8-2.1,1.9-2.1,3.1c0,1.6,1.4,2.7,3.2,2.7
			C294,140.9,295.1,140.4,296.2,139.6 M296.5,127.3c0-1.3-0.9-2.1-2.2-2.1c-1.4,0-2.2,1-2.2,2.4c0,1,0.4,1.8,1.4,2.9
			C295.4,129.7,296.5,128.8,296.5,127.3"/>
		<polygon class="st0" points="319.7,121.6 337.1,121.6 337.1,126.1 324.7,126.1 324.7,130.8 335.6,130.8 335.6,135.3 324.7,135.3 
			324.7,140.2 337.3,140.2 337.3,144.7 319.7,144.7 		"/>
		<path class="st0" d="M342.1,121.6h9c7.3,0,12.3,5,12.3,11.6c0,6.5-5,11.6-12.3,11.6h-9V121.6z M351.1,140.1c4.2,0,7-2.8,7-7
			c0-4.1-2.8-7-7-7h-3.9v13.9H351.1z"/>
		<path class="st0" d="M367.9,134.8v-13.2h5.1v13.1c0,3.8,1.9,5.7,5,5.7c3.1,0,5-1.9,5-5.5v-13.2h5.1v13c0,7-3.9,10.4-10.1,10.4
			C371.7,145.1,367.9,141.6,367.9,134.8"/>
		<path class="st0" d="M392.5,133.1c0-6.6,4.9-11.9,12-11.9c4.4,0,6.8,1.6,8.9,3.8l-3,3.5c-1.8-1.6-3.3-2.6-5.9-2.6
			c-3.9,0-6.7,3.2-6.7,7.3c0,4,2.7,7.3,6.7,7.3c2.6,0,4.3-1.1,6.1-2.7l3.2,3.5c-2.4,2.5-5,3.9-9.5,3.9
			C397.6,145.1,392.5,139.8,392.5,133.1"/>
		<path class="st0" d="M426.2,121.4h4.7l9.9,23.3h-5.3l-2.1-5.2h-9.8l-2.1,5.2h-5.2L426.2,121.4z M431.5,135l-3.1-7.5l-3.1,7.5
			H431.5z"/>
		<polygon class="st0" points="447.1,126.3 440,126.3 440,121.6 459.2,121.6 459.2,126.3 452.1,126.3 452.1,144.7 447.1,144.7 		"/>
		<rect x="463.6" y="121.6" class="st0" width="5.1" height="23.1"/>
		<path class="st0" d="M473.8,133.1c0-6.6,5.2-11.9,12.3-11.9c7.1,0,12.2,5.3,12.2,11.9c0,6.6-5.2,11.9-12.3,11.9
			C478.9,145.1,473.8,139.8,473.8,133.1 M493,133.1c0-4-2.9-7.3-7-7.3c-4.1,0-6.9,3.2-6.9,7.3c0,4,2.9,7.3,7,7.3
			C490.2,140.4,493,137.2,493,133.1"/>
		<polygon class="st0" points="503.2,121.6 507.9,121.6 518.7,135.8 518.7,121.6 523.7,121.6 523.7,144.7 519.4,144.7 508.2,130 
			508.2,144.7 503.2,144.7 		"/>
	</g>
</g>
</svg>
