<?xml version="1.0" standalone="no"?>
<!DOCTYPE svg PUBLIC "-//W3C//DTD SVG 20010904//EN"
 "http://www.w3.org/TR/2001/REC-SVG-20010904/DTD/svg10.dtd">
<svg version="1.0" xmlns="http://www.w3.org/2000/svg"
 width="600.000000pt" height="346.000000pt" viewBox="0 0 600.000000 346.000000"
 preserveAspectRatio="xMidYMid meet">

<g transform="translate(0.000000,346.000000) scale(0.100000,-0.100000)"
fill="#000000" stroke="none">
<path d="M872 1803 c3 -777 3 -789 24 -828 11 -22 40 -53 63 -70 l43 -30 254
-3 254 -3 113 -109 112 -109 110 110 110 109 244 0 243 0 50 27 c34 19 58 41
76 72 l27 46 3 788 2 787 -387 0 -387 0 -48 -47 -48 -47 -48 47 -48 47 -382 0
-382 0 2 -787z m954 687 c-61 -59 -71 -66 -74 -48 -5 30 83 118 119 118 25 0
21 -5 -45 -70z m49 -50 c-112 -113 -120 -119 -123 -94 -3 23 12 43 89 120 77
77 99 94 124 94 28 0 23 -7 -90 -120z m50 -40 c-88 -88 -163 -160 -167 -160
-5 0 -8 10 -8 22 0 16 43 66 137 160 116 116 143 138 168 138 28 0 19 -11
-130 -160z m215 143 c0 -10 -80 -98 -177 -195 -161 -161 -213 -202 -213 -166
0 17 361 378 377 378 7 0 13 -8 13 -17z m430 -178 l0 -195 -195 0 -195 0 0
195 0 195 195 0 195 0 0 -195z m-430 93 c0 -16 -42 -64 -132 -155 -112 -112
-137 -133 -163 -133 -28 0 -20 10 125 155 85 85 158 155 163 155 4 0 7 -10 7
-22z m-812 -54 c22 -25 22 -30 22 -280 0 -251 0 -254 -21 -254 -12 0 -34 14
-50 31 l-29 31 0 255 0 255 28 -6 c15 -4 37 -18 50 -32z m-165 -25 c27 -29 27
-31 27 -164 0 -88 -4 -135 -10 -135 -6 0 -25 7 -41 16 -47 24 -59 66 -59 205
l0 121 28 -6 c15 -4 39 -20 55 -37z m347 -95 l0 -136 -34 -34 c-61 -61 -66
-53 -66 104 0 145 6 163 55 190 43 24 45 19 45 -124z m544 -25 c-72 -73 -94
-89 -119 -89 -28 0 -24 6 85 115 108 108 115 114 118 89 3 -22 -11 -42 -84
-115z m45 -45 c-32 -33 -51 -44 -73 -44 -30 0 -30 1 39 70 67 68 70 70 73 44
3 -20 -7 -37 -39 -70z m41 -19 c0 -20 -5 -25 -27 -25 l-26 0 23 25 c13 14 25
25 27 25 2 0 3 -11 3 -25z m0 -250 l0 -195 -195 0 -195 0 0 195 0 195 195 0
195 0 0 -195z m90 192 c0 -2 -11 -14 -25 -27 l-25 -23 0 26 c0 22 5 27 25 27
14 0 25 -1 25 -3z m25 -67 c-61 -62 -70 -68 -73 -49 -5 30 83 119 117 119 23
0 18 -7 -44 -70z m155 64 c0 -4 -52 -58 -115 -121 -105 -105 -115 -112 -115
-86 0 22 20 48 92 120 63 63 100 93 115 93 13 0 23 -3 23 -6z m90 0 c0 -4
-320 -323 -326 -324 -1 0 1 12 4 28 6 38 268 302 299 302 13 0 23 -3 23 -6z
m70 -12 c0 -9 -80 -97 -178 -195 -148 -148 -183 -178 -203 -175 -21 3 -2 27
166 196 104 106 195 192 202 192 7 0 13 -8 13 -18z m0 -84 c0 -16 -42 -64
-132 -155 -111 -112 -138 -133 -163 -133 -28 0 -19 10 125 155 85 85 158 155
162 155 5 0 8 -10 8 -22z m0 -91 c0 -15 -29 -51 -88 -110 -70 -70 -93 -87
-117 -87 -28 0 -24 6 80 110 60 61 113 110 117 110 5 0 8 -10 8 -23z m0 -89
c0 -35 -78 -108 -114 -108 -30 0 -30 0 34 65 35 36 68 65 72 65 4 0 8 -10 8
-22z m0 -88 c0 -15 -7 -20 -27 -20 -25 0 -26 0 -8 20 10 11 22 20 27 20 4 0 8
-9 8 -20z m-770 -63 c0 -2 -11 -14 -25 -27 l-25 -23 0 26 c0 22 5 27 25 27 14
0 25 -1 25 -3z m25 -67 c-61 -62 -70 -68 -73 -49 -5 30 83 119 117 119 23 0
18 -7 -44 -70z m45 -45 c-97 -98 -116 -112 -118 -94 -5 31 172 209 208 209 21
0 9 -16 -90 -115z m45 -45 c-133 -134 -161 -157 -163 -139 -5 32 262 299 298
299 21 0 0 -25 -135 -160z m225 142 c0 -22 -351 -372 -373 -372 -10 0 -17 6
-17 12 0 17 361 378 377 378 7 0 13 -8 13 -18z m430 -177 l0 -195 -195 0 -195
0 0 195 0 195 195 0 195 0 0 -195z m-566 -62 c-104 -101 -143 -133 -163 -133
-22 0 -3 22 134 160 150 151 160 159 163 133 3 -24 -13 -45 -134 -160z m44
-43 c-65 -63 -100 -90 -118 -90 -21 0 -8 17 90 115 105 106 115 113 118 90 3
-21 -13 -42 -90 -115z m46 -41 c-32 -33 -57 -49 -73 -49 -23 0 -18 7 44 70 61
62 70 68 73 49 3 -15 -11 -36 -44 -70z m46 -24 c0 -20 -5 -25 -27 -25 l-26 0
23 25 c13 14 25 25 27 25 2 0 3 -11 3 -25z m0 -250 l0 -195 -97 0 -98 0 -97
-97 -98 -98 0 293 0 292 195 0 195 0 0 -195z m65 175 c-10 -11 -21 -20 -26
-20 -4 0 -5 9 -2 20 3 12 14 20 26 20 19 0 20 -1 2 -20z m45 -45 c-35 -36 -67
-65 -71 -65 -17 0 8 59 39 93 26 27 44 37 66 37 30 0 30 0 -34 -65z m45 -45
c-93 -94 -111 -107 -113 -89 -5 31 162 199 198 199 21 0 10 -15 -85 -110z m45
-45 c-85 -85 -158 -155 -161 -155 -26 0 22 64 135 178 98 99 137 132 156 132
21 0 1 -24 -130 -155z m230 148 c0 -10 -373 -383 -382 -383 -31 0 16 59 169
212 153 154 213 201 213 171z m-141 -239 c-109 -109 -150 -144 -169 -144 -21
0 1 26 140 165 137 138 166 162 168 144 3 -17 -29 -55 -139 -165z m45 -45
c-73 -73 -105 -99 -124 -99 -21 0 -8 17 95 120 101 102 121 117 123 99 3 -16
-21 -46 -94 -120z m71 -2 c-21 -44 -40 -62 -90 -82 -40 -17 -40 -17 29 54 39
39 72 69 74 67 2 -3 -4 -20 -13 -39z"/>
<path d="M3595 1976 c-50 -22 -70 -52 -70 -107 0 -64 21 -84 121 -118 83 -28
104 -51 68 -78 -26 -19 -65 -16 -117 10 l-46 24 -22 -30 c-21 -29 -21 -30 -3
-45 59 -44 180 -57 235 -25 38 23 63 75 55 117 -9 46 -46 76 -123 101 -70 23
-91 41 -80 69 8 21 77 22 119 0 33 -17 33 -17 59 30 9 15 8 21 -7 30 -62 36
-137 45 -189 22z"/>
<path d="M3030 1785 l0 -195 40 0 39 0 3 127 3 128 53 -84 53 -84 57 84 57 84
3 -127 3 -128 39 0 40 0 0 195 0 195 -47 0 -48 0 -51 -81 -51 -81 -51 81 -52
81 -45 0 -45 0 0 -195z"/>
<path d="M3901 1838 c4 -127 7 -147 27 -179 29 -47 81 -72 149 -71 70 1 121
27 147 78 18 33 22 61 24 177 l4 137 -46 0 -46 0 0 -129 c0 -122 -1 -132 -24
-157 -33 -39 -89 -39 -122 0 -23 25 -24 35 -24 157 l0 129 -46 0 -46 0 3 -142z"/>
<path d="M4350 1785 l0 -195 45 0 45 0 0 60 0 60 56 0 c105 0 164 48 164 132
0 108 -45 138 -204 138 l-106 0 0 -195z m205 100 c29 -28 31 -42 9 -73 -12
-18 -25 -22 -70 -22 l-54 0 0 60 0 60 45 0 c35 0 52 -6 70 -25z"/>
<path d="M4750 1785 l0 -195 151 0 150 0 -3 38 -3 37 -107 3 -108 3 0 39 0 40
95 0 95 0 0 40 0 40 -95 0 -95 0 0 40 0 40 105 0 105 0 0 35 0 35 -145 0 -145
0 0 -195z"/>
</g>
</svg>
